<svg width="76" height="34" viewBox="0 0 76 34" fill="none" xmlns="http://www.w3.org/2000/svg">
<path d="M15.0371 7.67978C15.8069 6.34644 17.7314 6.34645 18.5012 7.67978L25.5068 19.8139C26.2766 21.1472 25.3144 22.8139 23.7748 22.8139H9.76352C8.22392 22.8139 7.26167 21.1472 8.03147 19.8139L15.0371 7.67978Z" fill="#8458FF" fill-opacity="0.48"/>
<path d="M20.0011 8.0295C21.3602 7.3061 22.9927 8.3252 22.9396 9.86389L22.4569 23.8668C22.4038 25.4055 20.705 26.3097 19.399 25.4945L7.51348 18.0749C6.20746 17.2596 6.27377 15.3363 7.63284 14.6129L20.0011 8.0295Z" fill="#8358FF" fill-opacity="0.84"/>
<path d="M35.317 22H33.211C33.0463 22 32.925 21.9653 32.847 21.896C32.7777 21.818 32.743 21.6967 32.743 21.532V15.149H30.832C30.6673 15.149 30.546 15.1143 30.468 15.045C30.3987 14.967 30.364 14.8457 30.364 14.681V13.108C30.364 12.9433 30.3987 12.8263 30.468 12.757C30.546 12.679 30.6673 12.64 30.832 12.64H37.696C37.8607 12.64 37.9777 12.679 38.047 12.757C38.125 12.8263 38.164 12.9433 38.164 13.108V14.681C38.164 14.8457 38.125 14.967 38.047 15.045C37.9777 15.1143 37.8607 15.149 37.696 15.149H35.785V21.532C35.785 21.6967 35.746 21.818 35.668 21.896C35.5987 21.9653 35.4817 22 35.317 22ZM47.2948 19.543C47.2948 19.9417 47.2341 20.3057 47.1128 20.635C47.0001 20.9557 46.7921 21.233 46.4888 21.467C46.1941 21.6923 45.7824 21.87 45.2538 22C44.7338 22.13 44.0708 22.195 43.2648 22.195C42.4588 22.195 41.7914 22.13 41.2628 22C40.7341 21.87 40.3181 21.6923 40.0148 21.467C39.7201 21.233 39.5121 20.9557 39.3908 20.635C39.2781 20.3057 39.2218 19.9417 39.2218 19.543V15.11C39.2218 14.7113 39.2781 14.3517 39.3908 14.031C39.5121 13.7017 39.7201 13.42 40.0148 13.186C40.3181 12.952 40.7341 12.77 41.2628 12.64C41.7914 12.51 42.4588 12.445 43.2648 12.445C44.0708 12.445 44.7338 12.51 45.2538 12.64C45.7824 12.77 46.1941 12.952 46.4888 13.186C46.7921 13.42 47.0001 13.7017 47.1128 14.031C47.2341 14.3517 47.2948 14.7113 47.2948 15.11V19.543ZM42.1728 19.075C42.1728 19.2483 42.2378 19.3957 42.3678 19.517C42.4978 19.6297 42.7968 19.686 43.2648 19.686C43.7328 19.686 44.0318 19.6297 44.1618 19.517C44.2918 19.3957 44.3568 19.2483 44.3568 19.075V15.578C44.3568 15.4133 44.2918 15.2747 44.1618 15.162C44.0318 15.0407 43.7328 14.98 43.2648 14.98C42.7968 14.98 42.4978 15.0407 42.3678 15.162C42.2378 15.2747 42.1728 15.4133 42.1728 15.578V19.075ZM53.7987 22H49.4177C49.2531 22 49.1317 21.9653 49.0537 21.896C48.9844 21.818 48.9497 21.6967 48.9497 21.532V13.108C48.9497 12.9433 48.9844 12.8263 49.0537 12.757C49.1317 12.679 49.2531 12.64 49.4177 12.64H53.7987C54.8821 12.64 55.6837 12.8567 56.2037 13.29C56.7324 13.7233 56.9967 14.3907 56.9967 15.292V19.348C56.9967 20.2493 56.7324 20.9167 56.2037 21.35C55.6837 21.7833 54.8821 22 53.7987 22ZM51.9007 15.123V19.543H53.4477C53.6557 19.543 53.8074 19.491 53.9027 19.387C54.0067 19.283 54.0587 19.1227 54.0587 18.906V15.747C54.0587 15.5303 54.0067 15.3743 53.9027 15.279C53.8074 15.175 53.6557 15.123 53.4477 15.123H51.9007ZM66.579 19.543C66.579 19.9417 66.5183 20.3057 66.397 20.635C66.2843 20.9557 66.0763 21.233 65.773 21.467C65.4783 21.6923 65.0666 21.87 64.538 22C64.018 22.13 63.355 22.195 62.549 22.195C61.743 22.195 61.0756 22.13 60.547 22C60.0183 21.87 59.6023 21.6923 59.299 21.467C59.0043 21.233 58.7963 20.9557 58.675 20.635C58.5623 20.3057 58.506 19.9417 58.506 19.543V15.11C58.506 14.7113 58.5623 14.3517 58.675 14.031C58.7963 13.7017 59.0043 13.42 59.299 13.186C59.6023 12.952 60.0183 12.77 60.547 12.64C61.0756 12.51 61.743 12.445 62.549 12.445C63.355 12.445 64.018 12.51 64.538 12.64C65.0666 12.77 65.4783 12.952 65.773 13.186C66.0763 13.42 66.2843 13.7017 66.397 14.031C66.5183 14.3517 66.579 14.7113 66.579 15.11V19.543ZM61.457 19.075C61.457 19.2483 61.522 19.3957 61.652 19.517C61.782 19.6297 62.081 19.686 62.549 19.686C63.017 19.686 63.316 19.6297 63.446 19.517C63.576 19.3957 63.641 19.2483 63.641 19.075V15.578C63.641 15.4133 63.576 15.2747 63.446 15.162C63.316 15.0407 63.017 14.98 62.549 14.98C62.081 14.98 61.782 15.0407 61.652 15.162C61.522 15.2747 61.457 15.4133 61.457 15.578V19.075ZM72.5759 22H68.4679C68.3032 22 68.1819 21.9653 68.1039 21.896C68.0346 21.818 67.9999 21.6967 67.9999 21.532V20.011C67.9999 19.8463 68.0346 19.7293 68.1039 19.66C68.1819 19.582 68.3032 19.543 68.4679 19.543H71.9649C72.0776 19.543 72.1599 19.5083 72.2119 19.439C72.2726 19.361 72.3029 19.27 72.3029 19.166C72.3029 19.0187 72.2726 18.9103 72.2119 18.841C72.1599 18.7717 72.0776 18.7327 71.9649 18.724L70.0149 18.451C69.4082 18.3643 68.9186 18.165 68.5459 17.853C68.1819 17.541 67.9999 17.021 67.9999 16.293V14.928C67.9999 14.1913 68.2382 13.628 68.7149 13.238C69.1916 12.8393 69.8502 12.64 70.6909 12.64H74.3309C74.4956 12.64 74.6126 12.679 74.6819 12.757C74.7599 12.8263 74.7989 12.9433 74.7989 13.108V14.655C74.7989 14.8197 74.7599 14.941 74.6819 15.019C74.6126 15.0883 74.4956 15.123 74.3309 15.123H71.3019C71.1892 15.123 71.1026 15.162 71.0419 15.24C70.9812 15.3093 70.9509 15.4003 70.9509 15.513C70.9509 15.6257 70.9812 15.721 71.0419 15.799C71.1026 15.877 71.1892 15.9203 71.3019 15.929L73.2389 16.189C73.8456 16.2757 74.3352 16.475 74.7079 16.787C75.0806 17.099 75.2669 17.619 75.2669 18.347V19.712C75.2669 20.4487 75.0242 21.0163 74.5389 21.415C74.0622 21.805 73.4079 22 72.5759 22Z" fill="white"/>
</svg>
